<svg width="25" height="24" viewBox="0 0 25 24" fill="none"
    xmlns="http://www.w3.org/2000/svg">
    <path d="M5.5 19.5V6.19995C5.5 5.07985 5.5 4.51986 5.71799 4.09204C5.90973 3.71572 6.21547 3.40973 6.5918 3.21799C7.01962 3 7.58009 3 8.7002 3H17.9002C18.4602 3 18.7405 3 18.9544 3.10899C19.1425 3.20487 19.2948 3.35786 19.3906 3.54602C19.4996 3.75993 19.5 4.03992 19.5 4.59998V16.4C19.5 16.96 19.4996 17.2401 19.3906 17.454C19.2948 17.6422 19.1425 17.7951 18.9544 17.891C18.7405 18 18.4601 18 17.9 18H7.75C6.50736 18 5.5 19.0074 5.5 20.25C5.5 20.6642 5.83579 21 6.25 21H16.9C17.4601 21 17.7405 21 17.9544 20.891C18.1425 20.7951 18.2948 20.6422 18.3906 20.454C18.4996 20.2401 18.5 19.9601 18.5 19.4V18" stroke="white" stroke-width="2" stroke-linecap="round" stroke-linejoin="round" stroke-linejoin="round"/>
</svg>
