<svg xmlns="http://www.w3.org/2000/svg" width="24" height="24" viewBox="0 0 24 24" fill="none">
    <path d="M12.5 4.35294C14.7809 4.35294 16.6364 6.2 16.6364 8.47059C16.6364 10.7412 14.7809 12.5882 12.5 12.5882C10.2191 12.5882 8.36364 10.7412 8.36364 8.47059C8.36364 6.2 10.2191 4.35294 12.5 4.35294ZM13.6818 14.8353C15.1757 14.5603 16.5257 13.7731 17.4972 12.6104C18.4687 11.4477 19.0005 9.98295 19 8.47059C19 4.89412 16.0927 2 12.5 2C8.90727 2 6 4.89412 6 8.47059C5.99954 9.98295 6.53125 11.4477 7.50278 12.6104C8.47431 13.7731 9.82427 14.5603 11.3182 14.8353V17.2941H10.1364C9.48636 17.2941 8.95455 17.8235 8.95455 18.4706C8.95455 19.1176 9.48636 19.6471 10.1364 19.6471H11.3182V20.8235C11.3182 21.4706 11.85 22 12.5 22C13.15 22 13.6818 21.4706 13.6818 20.8235V19.6471H14.8636C15.5136 19.6471 16.0455 19.1176 16.0455 18.4706C16.0455 17.8235 15.5136 17.2941 14.8636 17.2941H13.6818V14.8353Z" fill="white"/>
</svg>