<svg xmlns="http://www.w3.org/2000/svg" width="24" height="30" viewBox="0 0 24 30" fill="none">
    <g clip-path="url(#clip0_13_297)">
        <path d="M15.6923 5.625C17.2217 5.625 18.4615 4.36582 18.4615 2.8125C18.4615 1.25918 17.2217 0 15.6923 0C14.1629 0 12.9231 1.25918 12.9231 2.8125C12.9231 4.36582 14.1629 5.625 15.6923 5.625ZM6.55904 18.6018L5.70519 20.6244H1.84615C0.826731 20.6244 0 21.4641 0 22.4994C0 23.5348 0.826731 24.3744 1.84615 24.3744H6.31442C7.425 24.3744 8.42481 23.7041 8.85923 22.6699L9.36635 21.4676L8.75077 21.0984C7.75154 20.499 7.01654 19.6119 6.55904 18.6018ZM22.1538 13.1244H19.6137L18.1102 10.0043C17.389 8.50723 16.065 7.4127 14.546 7.01953L10.4452 5.78086C8.8125 5.38242 7.11231 5.74863 5.78135 6.78516L3.49269 8.56699C2.68327 9.19688 2.52981 10.3734 3.15115 11.1955C3.7725 12.0176 4.93038 12.1717 5.73923 11.5424L8.02904 9.76055C8.47154 9.41543 9.03519 9.2918 9.48692 9.40078L10.335 9.65684L8.17385 14.7773C7.44577 16.5047 8.09827 18.5279 9.69115 19.483L14.5938 22.4227L13.009 27.5631C12.7044 28.551 13.2462 29.6027 14.2188 29.9121C14.4029 29.9707 14.5887 29.9988 14.7715 29.9988C15.5567 29.9988 16.2848 29.485 16.5323 28.6834L18.3577 22.7619C18.6987 21.5449 18.191 20.2377 17.1092 19.575L13.5762 17.4574L15.3825 12.8707L16.5519 15.2982C17.0135 16.2557 17.9896 16.8738 19.039 16.8738H22.1538C23.1733 16.8738 24 16.0342 24 14.9988C24 13.9635 23.1733 13.1244 22.1538 13.1244Z" fill="white"/>
    </g>
    <defs>
        <clipPath id="clip0_13_297">
            <rect width="24" height="30" fill="white"/>
        </clipPath>
    </defs>
</svg>