<svg xmlns="http://www.w3.org/2000/svg" width="30" height="30" viewBox="0 0 30 30" fill="none">
    <path d="M3.4375 7.5C3.4375 7.25136 3.33873 7.0129 3.16291 6.83709C2.9871 6.66127 2.74864 6.5625 2.5 6.5625C2.25136 6.5625 2.0129 6.66127 1.83709 6.83709C1.66127 7.0129 1.5625 7.25136 1.5625 7.5V22.5C1.5625 22.7486 1.66127 22.9871 1.83709 23.1629C2.0129 23.3387 2.25136 23.4375 2.5 23.4375C2.74864 23.4375 2.9871 23.3387 3.16291 23.1629C3.33873 22.9871 3.4375 22.7486 3.4375 22.5V20.9375H26.4275V22.5C26.4275 22.7486 26.5263 22.9871 26.7021 23.1629C26.8779 23.3387 27.1164 23.4375 27.365 23.4375C27.6136 23.4375 27.8521 23.3387 28.0279 23.1629C28.2037 22.9871 28.3025 22.7486 28.3025 22.5V19.5537C28.3025 17.06 28.3025 15.8138 27.9525 14.8112C27.6424 13.925 27.1366 13.12 26.4727 12.4561C25.8087 11.7922 25.0037 11.2864 24.1175 10.9763C23.115 10.6263 21.8675 10.6263 19.375 10.6263H19.3725C18.375 10.6263 17.075 10.6263 16.6737 10.765C16.3193 10.8891 15.9974 11.0913 15.7319 11.3569C15.4663 11.6224 15.2641 11.9443 15.14 12.2987C15 12.7 15 13.2 15 14.1963V19.0625H3.4375V7.5Z" fill="white"/>
    <path d="M8.75 16.875C9.5788 16.875 10.3737 16.5458 10.9597 15.9597C11.5458 15.3737 11.875 14.5788 11.875 13.75C11.875 12.9212 11.5458 12.1263 10.9597 11.5403C10.3737 10.9542 9.5788 10.625 8.75 10.625C7.9212 10.625 7.12634 10.9542 6.54029 11.5403C5.95424 12.1263 5.625 12.9212 5.625 13.75C5.625 14.5788 5.95424 15.3737 6.54029 15.9597C7.12634 16.5458 7.9212 16.875 8.75 16.875Z" fill="white"/>
</svg>