<svg xmlns="http://www.w3.org/2000/svg" width="19" height="30" viewBox="0 0 19 30" fill="none">
    <g clip-path="url(#clip0_25_433)">
        <path d="M12.3495 5.625C13.9229 5.625 15.1995 4.36523 15.1995 2.8125C15.1995 1.25977 13.9229 0 12.3495 0C10.7761 0 9.49949 1.25977 9.49949 2.8125C9.49949 4.36523 10.7761 5.625 12.3495 5.625ZM17.9604 14.3613L16.577 13.6699L16.0011 11.9473C15.1282 9.33398 12.6939 7.50586 9.93293 7.5C7.79543 7.49414 6.61387 8.0918 4.39324 8.97656C3.11074 9.48633 2.0598 10.4531 1.4423 11.6836L1.04449 12.4805C0.581367 13.4062 0.95543 14.5312 1.88762 14.9941C2.81387 15.457 3.94199 15.082 4.41105 14.1562L4.80887 13.3594C5.01668 12.9492 5.36105 12.627 5.78855 12.457L7.3798 11.8242L6.4773 15.3809C6.16855 16.5996 6.50105 17.8945 7.36199 18.8262L10.9186 22.6582C11.3461 23.1211 11.6489 23.6777 11.8032 24.2812L12.8898 28.5762C13.1451 29.5781 14.1782 30.1934 15.1936 29.9414C16.2089 29.6895 16.8323 28.6699 16.577 27.668L15.2589 22.4531C15.1045 21.8496 14.8017 21.2871 14.3742 20.8301L11.6726 17.918L12.6939 13.8926L13.0204 14.8594C13.3351 15.8027 14.012 16.582 14.9026 17.0273L16.2861 17.7188C17.2123 18.1816 18.3404 17.8066 18.8095 16.8809C19.2667 15.9609 18.8926 14.8242 17.9604 14.3613ZM4.36949 22.6055C4.17949 23.0801 3.89449 23.5078 3.52637 23.8652L0.557617 26.8008C-0.18457 27.5332 -0.18457 28.7227 0.557617 29.4551C1.2998 30.1875 2.49918 30.1875 3.24137 29.4551L6.76824 25.9746C7.13043 25.6172 7.41543 25.1895 7.61137 24.7148L8.41293 22.7344C5.12949 19.2012 6.11512 20.2852 5.59855 19.5879L4.36949 22.6055Z" fill="white"/>
    </g>
    <defs>
        <clipPath id="clip0_25_433">
            <rect width="19" height="30" fill="white"/>
        </clipPath>
    </defs>
</svg>